<svg width="25" height="25" viewBox="0 0 25 25" fill="none" xmlns="http://www.w3.org/2000/svg">
<g clip-path="url(#clip0)">
<path d="M12.5179 0H12.4822C8.16474 0 4.65234 3.51122 4.65234 7.82703C4.65234 10.656 5.94072 14.3896 8.48167 18.9243C10.3655 22.2861 12.2758 24.861 12.2949 24.8865C12.3481 24.958 12.4319 25.0001 12.5207 25.0001C12.5232 25.0001 12.5258 25.0001 12.5283 24.9999C12.6199 24.9974 12.7045 24.9505 12.7553 24.8742C12.7742 24.8456 14.6708 21.9815 16.5419 18.4783C19.0673 13.75 20.3478 10.1663 20.3478 7.82703C20.3477 3.51116 16.8352 0 12.5179 0ZM16.132 8.0183C16.132 10.0211 14.5027 11.6503 12.5 11.6503C10.4973 11.6503 8.86797 10.021 8.86797 8.0183C8.86797 6.0156 10.4973 4.3863 12.5 4.3863C14.5027 4.3863 16.132 6.0156 16.132 8.0183Z" fill="#555555"/>
</g>
<defs>
<clipPath id="clip0">
<rect width="25" height="25" fill="white"/>
</clipPath>
</defs>
</svg>
